<svg xmlns="http://www.w3.org/2000/svg" viewBox="0 0 1000 519.23">
  <path d="m 437.20268,432.7129 c 0,-1.37095 -0.70417,-2.29322 -1.77393,-3.09086 0,0 -0.8018,-0.62316 -1.23904,-0.92228 l 3.44814,-4.16789 c 0.0976,0.13398 1.20789,1.46962 1.20789,1.46962 l 8.53934,0 0,3.72129 -8.53934,0 0,2.65258 9.10122,0.006 0.001,4.00068 -12.87029,-0.001 c 1.34498,-0.69482 2.12497,-2.03358 2.12497,-3.66833 m 3.1511,-9.43669 c -0.58785,-0.67717 -0.60966,-0.75922 -0.82257,-1.00225 l 2.68893,-3.25392 5.71332,10e-4 10e-4,4.25305 z m -17.5606,3.13345 1.71784,5.14001 1.67629,-5.14001 z m 7.54125,9.97261 -8.79276,0.001 -6.90667,-17.36222 5.84315,-0.002 1.12895,3.22173 5.46822,-0.005 c -0.1963,0.59511 -0.29912,1.26293 -0.29912,2.00345 0,2.26726 1.60567,3.73791 3.1106,4.75989 -0.70313,0.82257 -1.72511,2.06888 -1.72511,3.76387 0,1.62645 0.78206,2.93508 2.17274,3.61952 m 2.78967,-5.18987 c 0.55877,0.39882 0.99498,0.87242 0.99498,1.49558 0,0.82256 -0.53384,1.44572 -1.43326,1.44572 -0.94824,0 -1.43327,-0.62316 -1.43327,-1.44572 0,-0.64809 0.5328,-1.27125 1.14038,-1.99411 0.24407,0.14956 0.73117,0.49853 0.73117,0.49853 m -3.11475,-7.02611 c 0,-1.4717 1.35953,-2.80214 2.81668,-2.80214 1.02094,0 1.77496,0.32301 2.57676,1.04587 l -3.6434,4.47324 c -1.04691,-0.74779 -1.75004,-1.44573 -1.75004,-2.71697" transform="matrix(30.01831 0 0 -29.90252 -12446.64118 13048.952905)"/>
</svg>
