<?xml version="1.0" encoding="UTF-8" standalone="no"?>
<!-- Created with Inkscape (http://www.inkscape.org/) -->

<svg
   xmlns:dc="http://purl.org/dc/elements/1.1/"
   xmlns:cc="http://creativecommons.org/ns#"
   xmlns:rdf="http://www.w3.org/1999/02/22-rdf-syntax-ns#"
   xmlns:svg="http://www.w3.org/2000/svg"
   xmlns="http://www.w3.org/2000/svg"
   xmlns:sodipodi="http://sodipodi.sourceforge.net/DTD/sodipodi-0.dtd"
   xmlns:inkscape="http://www.inkscape.org/namespaces/inkscape"
   width="98"
   height="34"
   id="svg2"
   sodipodi:version="0.32"
   inkscape:version="0.92.2 (5c3e80d, 2017-08-06)"
   version="1.0"
   sodipodi:docname="Discovery1985.svg"
   inkscape:output_extension="org.inkscape.output.svg.inkscape">
  <title
     id="title4550">The Discovery Channel logo</title>
  <defs
     id="defs4">
    <inkscape:perspective
       sodipodi:type="inkscape:persp3d"
       inkscape:vp_x="0 : 526.18109 : 1"
       inkscape:vp_y="0 : 1000 : 0"
       inkscape:vp_z="744.09448 : 526.18109 : 1"
       inkscape:persp3d-origin="372.04724 : 350.78739 : 1"
       id="perspective10" />
    <inkscape:perspective
       id="perspective2410"
       inkscape:persp3d-origin="372.04724 : 350.78739 : 1"
       inkscape:vp_z="744.09448 : 526.18109 : 1"
       inkscape:vp_y="0 : 1000 : 0"
       inkscape:vp_x="0 : 526.18109 : 1"
       sodipodi:type="inkscape:persp3d" />
  </defs>
  <sodipodi:namedview
     id="base"
     pagecolor="#ffffff"
     bordercolor="#666666"
     borderopacity="1.0"
     gridtolerance="10000"
     guidetolerance="10"
     objecttolerance="10"
     inkscape:pageopacity="0.0"
     inkscape:pageshadow="2"
     inkscape:zoom="6.3963239"
     inkscape:cx="94.258729"
     inkscape:cy="27.426271"
     inkscape:document-units="px"
     inkscape:current-layer="layer1"
     showgrid="false"
     showguides="true"
     inkscape:guide-bbox="true"
     inkscape:window-width="1366"
     inkscape:window-height="705"
     inkscape:window-x="-8"
     inkscape:window-y="-8"
     inkscape:showpageshadow="false"
     inkscape:window-maximized="1" />
  <metadata
     id="metadata7">
    <rdf:RDF>
      <cc:Work
         rdf:about="">
        <dc:format>image/svg+xml</dc:format>
        <dc:type
           rdf:resource="http://purl.org/dc/dcmitype/StillImage" />
        <dc:title>The Discovery Channel logo</dc:title>
        <cc:license
           rdf:resource="http://scripts.sil.org/OFL" />
      </cc:Work>
      <cc:License
         rdf:about="http://scripts.sil.org/OFL">
        <cc:permits
           rdf:resource="http://scripts.sil.org/pub/OFL/Reproduction" />
        <cc:permits
           rdf:resource="http://scripts.sil.org/pub/OFL/Distribution" />
        <cc:permits
           rdf:resource="http://scripts.sil.org/pub/OFL/Embedding" />
        <cc:permits
           rdf:resource="http://scripts.sil.org/pub/OFL/DerivativeWorks" />
        <cc:requires
           rdf:resource="http://scripts.sil.org/pub/OFL/Notice" />
        <cc:requires
           rdf:resource="http://scripts.sil.org/pub/OFL/Attribution" />
        <cc:requires
           rdf:resource="http://scripts.sil.org/pub/OFL/ShareAlike" />
        <cc:requires
           rdf:resource="http://scripts.sil.org/pub/OFL/DerivativeRenaming" />
        <cc:requires
           rdf:resource="http://scripts.sil.org/pub/OFL/BundlingWhenSelling" />
      </cc:License>
    </rdf:RDF>
  </metadata>
  <g
     inkscape:label="Layer 1"
     inkscape:groupmode="layer"
     id="layer1"
     transform="translate(-280.61641,-564.58385)">
    <path
       style="font-style:normal;font-weight:normal;line-height:0%;font-family:'Bitstream Vera Sans';fill:#000000;fill-opacity:1;stroke:none;stroke-width:0.52410954px;stroke-linecap:butt;stroke-linejoin:miter;stroke-opacity:1"
       d="m 293.20373,565.95938 v 0.46133 h 1.21574 v 3.14891 h 0.51087 v -3.14891 h 1.23605 v -0.46133 z m 4.88224,0.006 v 3.60239 h 0.50783 v -1.56838 h 1.99372 v 1.56838 h 0.50783 v -3.60239 h -0.50783 v 1.55752 h -1.99372 v -1.55752 z m 5.23061,0 v 3.59737 h 2.05974 v -0.46134 h -1.55192 v -1.11932 h 1.45238 v -0.46201 h -1.45238 v -1.09867 h 1.50317 v -0.46066 z m -18.8373,1.84967 v 0.0469 h -2.76257 v 21.29455 h 4.50137 v -0.0469 h 3.03883 c 1.47082,0 4.40387,-1.67635 4.40386,-3.73074 0,-2.05419 0,-10.1789 0,-13.07375 0,-2.89485 -2.65727,-4.48999 -4.40386,-4.48999 -1.7466,0 -4.77762,0 -4.77763,0 z m 31.34098,2.8742 c -3.03356,0 -5.5617,1.96059 -5.5617,4.48188 v 8.48163 a 20.137861,20.337153 0 0 1 4.22917,-0.64304 v -7.6491 c 0,-1.1206 0.55116,-1.35375 1.33253,-1.35375 0.78138,0 1.12636,0.74819 1.12636,1.1432 v 2.96532 h 4.06769 v -3.7349 c 0,-1.6809 -2.16048,-3.68836 -5.19405,-3.68836 z m -11.12341,0.0932 c -3.58513,0 -5.51499,1.91405 -5.51499,4.38881 0,2.47449 0.64372,2.70824 2.48225,4.15579 1.83852,1.44743 3.72236,2.84731 3.72236,3.96791 0,1.12054 0.32184,2.75464 -0.91916,2.75464 -1.24101,0 -0.91917,-1.0732 -0.91917,-1.77344 v -2.33481 h -4.50441 v 2.8011 c 0,0.80653 0.90831,3.01716 2.34311,3.93291 a 20.137861,20.337153 0 0 1 8.47967,-4.92229 c -0.15687,-3.63606 -1.13281,-3.76232 -2.22732,-4.66024 -1.19504,-0.98052 -4.04534,-3.08152 -4.04534,-4.06205 0,-0.98026 0.41408,-1.1202 0.82775,-1.1202 0.41367,0 1.0573,-4e-4 1.0573,2.42748 h 4.09003 v -1.86711 c 0,-0.84072 -1.28696,-3.68836 -4.87208,-3.68836 z m 22.47231,0.004 c -4.45843,-7e-5 -5.37889,2.65587 -5.37889,4.80353 0,1.27845 0,3.18693 0,5.36491 h -0.0813 c 0,0 0,1.67628 0,3.07562 a 20.137861,20.337153 0 0 1 7.74739,4.78282 c 2.12065,-0.85621 2.63664,-2.75384 2.63664,-4.3589 -0.0853,-3.04103 0.14587,-6.05979 0.0975,-9.09565 0,-1.58736 -0.56296,-4.57233 -5.02138,-4.57233 z m 22.52309,0 c -4.45844,-7e-5 -5.37889,2.65587 -5.37889,4.80353 v 5.36491 h -0.0813 c -10e-6,0 0,2.15967 0,3.74717 -10e-6,1.58743 0.5467,4.57253 5.00513,4.57253 4.45842,0 5.37889,-2.6723 5.37889,-4.82016 -0.0244,-0.87023 -0.0297,-1.74052 -0.0163,-2.60806 h -4.11136 c -0.007,0.96363 0.005,1.93256 0.0325,2.9383 0,1.30728 -0.78213,1.23801 -1.21878,1.23801 -0.40521,0 -0.87526,-0.0335 -0.94253,-1.37004 h 0.0488 v -4.20951 h 2.0963 0.47126 3.65635 c 0.0436,-1.69558 0.10833,-3.38487 0.0813,-5.08435 0,-1.58736 -0.56296,-4.57233 -5.02138,-4.57233 z m 13.19535,0 c -1.93907,0 -2.67576,0.25346 -3.36384,0.60885 v -0.0979 h -4.40387 v 17.77844 h 4.40387 v -14.59258 c 0.11372,-0.28163 0.34041,-0.5304 0.82877,-0.5304 1.14908,0 0.97503,0.75255 0.97503,1.45259 0,0.69897 0.0947,3.4528 0.0487,3.49967 l 4.07885,0.0335 c 0,0 0,-2.15404 0,-3.64813 0,-1.49409 -0.0857,-4.52312 -2.56756,-4.52312 z m -68.76166,0.27827 v 18.02199 h 4.41199 v -18.02212 z m 38.74712,0.23268 c 0,-0.0939 -0.0488,1.03041 -0.0488,6.58669 0,5.55588 2.81227,11.19175 3.36384,11.19175 h 0.30876 c 0.86791,0 3.4126,0 3.41259,0 h 0.30876 c 0.55155,0 3.36384,-5.63587 3.36384,-11.19175 0,-5.55628 -0.0487,-6.68023 -0.0487,-6.58669 h -4.17636 v 6.02532 c 0,1.24277 -0.56289,4.44486 -1.15378,6.65241 -0.59047,-2.20741 -1.15378,-5.41037 -1.15378,-6.65241 v -6.02532 z m 33.13462,0.0335 c 0,-0.0939 -0.0487,1.03034 -0.0487,6.58636 0,5.2957 2.54924,10.65096 3.26633,11.14253 h -2.74632 v 1.91492 h 5.93141 0.13 v -0.0979 c 0.18763,-0.19311 0.54804,-0.71828 1.08878,-1.81588 0.24661,-0.50224 3.08758,-5.58646 3.08758,-11.1426 0,-5.55615 -0.0487,-6.67984 -0.0487,-6.5865 h -4.17636 v 6.02526 c 0,1.24277 -0.56288,4.44493 -1.15378,6.65261 -0.59047,-2.20755 -1.15378,-5.41064 -1.15378,-6.65261 v -6.02526 z m -79.7896,0.49686 c 0.52095,0 0.75153,0 1.20253,0 1.10312,0 1.7388,0.37282 1.7388,1.86551 v 8.40217 c 0,0.65579 0.19261,2.98786 -1.18629,2.98786 -0.9366,0 -1.30497,0 -1.75504,0 z m 40.88607,2.17912 c 0.40522,0 1.03028,0.0469 0.94253,1.3866 0,3.76038 -0.13298,6.33645 -0.0487,9.37614 0,1.30728 -0.78213,1.23808 -1.21878,1.23808 -0.40521,0 -0.87526,-0.0335 -0.94253,-1.37004 h 0.0488 c 0,-7e-5 0,-8.08542 0,-9.39277 0,-1.30728 0.78213,-1.23801 1.21878,-1.23801 z m 22.5231,0 c 0.4052,0 1.03027,0.0469 0.94252,1.3866 0,0.68777 -0.008,1.2991 -0.0163,1.91486 h -2.14505 v -2.06345 c 0,-1.30735 0.78213,-1.23801 1.21878,-1.23801 z m -32.74969,7.6385 v 1.67447 c 1.44149,0.11332 2.84104,0.3822 4.18245,0.80082 v -2.47516 z m -1.67887,1.99961 a 19.565766,19.817083 0 0 0 -18.63925,13.81456 h 37.26223 a 19.565766,19.817083 0 0 0 -18.62298,-13.81456 z m 20.62382,8.12464 c -0.53999,0 -0.995,0.18105 -1.36402,0.53643 -0.36733,0.35606 -0.55048,0.79861 -0.55048,1.32378 0,0.32856 0.0799,0.635 0.24071,0.92051 0.16081,0.28364 0.37917,0.50626 0.65509,0.66719 0.27592,0.16093 0.61244,0.24407 1.00855,0.24407 0.48751,0 0.91745,-0.10125 1.28987,-0.31112 v -0.56728 c -0.40965,0.2709 -0.82945,0.40433 -1.25941,0.40433 -0.41134,0 -0.74955,-0.12673 -1.01362,-0.38086 -0.26407,-0.25414 -0.3961,-0.57733 -0.3961,-0.97476 0,-0.38958 0.13372,-0.71976 0.40118,-0.97832 0.26915,-0.26017 0.60736,-0.38958 1.01362,-0.38958 0.3961,0 0.80101,0.12204 1.21574,0.36075 v -0.55521 c -0.45535,-0.19713 -0.86873,-0.29503 -1.24113,-0.29503 z m 9.2018,0.0201 -1.52347,3.62446 h 0.52001 l 0.44689,-1.06783 h 1.50824 l 0.47228,1.06783 h 0.52103 l -1.58747,-3.62446 z m -5.85015,0.0134 v 3.60374 h 0.50783 v -1.56819 h 1.9927 v 1.56819 h 0.50783 v -3.60374 h -0.50783 v 1.55793 h -1.9927 v -1.55793 z m 9.65377,0 v 3.60374 h 0.47736 v -2.77328 l 2.37154,2.77328 h 0.43673 v -3.60374 h -0.48243 v 2.79594 l -2.39186,-2.79594 z m 5.50483,0 v 3.60374 h 0.47736 v -2.77328 l 2.37155,2.77328 h 0.43673 v -3.60374 h -0.48244 v 2.79594 l -2.39186,-2.79594 z m 5.4896,0 v 3.59858 h 2.05873 v -0.46133 h -1.55091 v -1.11927 h 1.45239 v -0.46334 h -1.45239 v -1.09874 h 1.50317 v -0.46133 z m 4.0423,0 v 3.60374 h 2.10442 v -0.47005 h -1.5966 v -3.13436 z m -18.66769,0.77293 0.5708,1.30507 h -1.10198 z"
       id="text2416"
       inkscape:connector-curvature="0" />
    <text
       xml:space="preserve"
       style="font-style:normal;font-weight:normal;line-height:0%;font-family:'Bitstream Vera Sans';fill:#ffffff;fill-opacity:1;stroke:none;stroke-width:1px;stroke-linecap:butt;stroke-linejoin:miter;stroke-opacity:1"
       x="450.42703"
       y="592.03564"
       id="text3243"><tspan
         sodipodi:role="line"
         id="tspan3245"
         x="450.42703"
         y="592.03564"
         style="font-size:9px;line-height:1.25">®</tspan></text>
  </g>
</svg>
