<?xml version="1.0" encoding="UTF-8" standalone="no"?>
<!-- Created with Inkscape (http://www.inkscape.org/) -->

<svg
   xmlns:dc="http://purl.org/dc/elements/1.1/"
   xmlns:cc="http://creativecommons.org/ns#"
   xmlns:rdf="http://www.w3.org/1999/02/22-rdf-syntax-ns#"
   xmlns:svg="http://www.w3.org/2000/svg"
   xmlns="http://www.w3.org/2000/svg"
   xmlns:sodipodi="http://sodipodi.sourceforge.net/DTD/sodipodi-0.dtd"
   xmlns:inkscape="http://www.inkscape.org/namespaces/inkscape"
   width="1000"
   height="618.05737"
   viewBox="0 0 264.58333 163.52768"
   version="1.1"
   id="svg8"
   inkscape:version="0.92.5 (2060ec1f9f, 2020-04-08)"
   sodipodi:docname="MTV_(2010).svg">
  <defs
     id="defs2" />
  <sodipodi:namedview
     id="base"
     pagecolor="#ffffff"
     bordercolor="#666666"
     borderopacity="1.0"
     inkscape:pageopacity="0.0"
     inkscape:pageshadow="2"
     inkscape:zoom="0.35"
     inkscape:cx="893.4278"
     inkscape:cy="266.80351"
     inkscape:document-units="px"
     inkscape:current-layer="layer1"
     showgrid="false"
     units="px"
     inkscape:window-width="1366"
     inkscape:window-height="705"
     inkscape:window-x="-8"
     inkscape:window-y="-8"
     inkscape:window-maximized="1"
     fit-margin-top="0"
     fit-margin-left="0"
     fit-margin-right="0"
     fit-margin-bottom="0" />
  <metadata
     id="metadata5">
    <rdf:RDF>
      <cc:Work
         rdf:about="">
        <dc:format>image/svg+xml</dc:format>
        <dc:type
           rdf:resource="http://purl.org/dc/dcmitype/StillImage" />
        <dc:title />
      </cc:Work>
    </rdf:RDF>
  </metadata>
  <g
     inkscape:label="Layer 1"
     inkscape:groupmode="layer"
     id="layer1"
     transform="translate(-19.826464,201.34222)">
    <path
       inkscape:connector-curvature="0"
       id="path74280"
       style="fill-opacity:1;fill-rule:nonzero;stroke:none;stroke-width:34.82276154"
       d="m 206.51128,-37.814543 c -0.48752,-4.074263 -1.07951,-9.959309 -1.07951,-15.147901 0,-3.203694 0.4527,-16.15776 0.4527,-26.569765 0,-8.775336 -1.91525,-24.410751 -1.91525,-32.872681 0,-5.11895 0.38305,-12.01386 -0.17412,-14.45145 4.07427,-2.64653 7.62619,-4.35285 18.83912,-11.10846 3.62156,-2.22866 10.55129,-5.91987 10.55129,-10.41201 0,-1.98489 -0.52234,-3.27334 -3.34298,-5.60646 -1.95008,-1.56702 -4.07426,-2.01972 -6.47703,-2.01972 -5.71094,0 -8.28782,5.71093 -13.09336,8.67087 -7.31278,4.45731 -11.17811,6.65114 -12.67549,7.48689 -0.59198,-0.27858 -3.09922,-1.74114 -7.10384,-1.74114 -4.17873,0 -9.01909,1.88043 -9.01909,7.31278 0,2.47242 0.7661,5.18859 -2.54207,6.92973 -1.88042,1.18397 -10.96917,6.37257 -20.64989,12.22279 -8.14853,4.91001 -11.94421,4.52696 -15.39166,6.5815 -3.16887,1.91525 -4.00462,4.31802 -4.00462,6.37257 0,1.8456 1.14915,4.178728 1.56702,4.701069 2.19384,2.785821 4.14391,4.318022 7.59137,4.318022 5.85022,0 10.72541,-5.118945 19.7445,-11.526331 5.64129,-4.00462 10.79506,-8.18335 13.82464,-8.18335 2.71617,0 4.5966,2.05454 4.5966,10.412 0,28.067149 -1.70631,32.524462 -1.70631,51.955562 0,3.517099 0.13929,9.994132 0.24375,12.675485 h -14.86931 v -45.93122 l -28.62431,24.132172 -28.65913,-24.132172 v 45.93122 H 19.826464 V -201.34222 H 110.1567 l 31.09673,32.73339 31.0619,-32.73339 h 90.81776 v 69.9241 c -2.85547,4.42249 -11.6308,19.46592 -17.55067,34.822758 -1.91526,5.014478 -2.82065,8.636045 -5.36271,8.636045 -2.78582,0 -3.02958,-2.750998 -3.30816,-5.258237 -0.55716,-5.362705 -1.77596,-15.391656 -2.33313,-19.117696 -1.0795,-7.13867 -2.47241,-14.6952 -10.48165,-14.6952 -5.91987,0 -12.11832,3.23851 -12.11832,12.08349 0,5.01448 2.54206,13.72017 6.89491,25.176859 1.70632,4.526959 10.79506,28.380549 12.11832,31.828003 2.40277,6.302919 5.71093,8.044057 10.93435,8.044057 6.65114,0 8.94945,-2.437593 11.66562,-11.770093 2.33313,-7.939589 6.2681,-20.893656 9.54144,-29.042181 0,0 0,0 0,0 v 52.895772 z m 77.89851,-90.748117 v 90.748117 h -14.93896 v -66.407007 c 3.20369,-6.8949 10.89952,-19.01322 14.93896,-24.34111 m -14.93896,-12.11832 v -60.66124 l 14.93896,8.98427 v 33.22091 c -3.65639,3.8305 -11.35222,13.163 -14.93896,18.45606 m -119.99923,-45.79193 -8.21817,8.67087 -22.28657,-23.43572 28.27608,12.43173 z m 1.00986,127.346838 h 10.27271 l 2.78582,-2.333125 v -8.670867 z m -31.54942,21.311529 h 12.29243 v -21.973162 l -12.29243,-10.342359 z" />
  </g>
</svg>
