<svg clip-rule="evenodd" fill-rule="evenodd" stroke-linejoin="round" stroke-miterlimit="2" viewBox="0 0 560 400" xmlns="http://www.w3.org/2000/svg"><g transform="matrix(.949042 0 0 .949042 100 106.687)"><g fill="#eb2d37"><path d="m128.719 0h122.04c-.051.75-.145 1.502-.145 2.252-.007 64.048-.006 128.096-.012 192.144 0 .728-.077 1.458-.117 2.165h-121.616v-2.317c0-63.997.001-127.994-.006-191.992.001-.75-.093-1.502-.144-2.252zm34.566 92.653c0 10.875-.017 21.751.008 32.626.009 3.833.648 7.562 2.503 10.968 3.453 6.339 9.243 8.706 16.036 8.81 10.67.164 21.346.051 32.019.038 1.813-.003 2.332-.544 2.338-2.372.013-4.098.008-8.194.003-12.292-.002-2.244-.418-2.663-2.637-2.664-8.195-.003-16.389-.013-24.583.006-2.116.005-3.985-.614-5.58-1.99-2.158-1.862-2.794-4.293-2.79-7.069.036-19.828.021-39.657.017-59.485 0-2.396-.411-2.799-2.838-2.803-3.895-.005-7.79-.005-11.684 0-2.37.003-2.811.452-2.812 2.843-.002 11.127-.001 22.256 0 33.384z" fill-rule="nonzero"/><path d="m0 188.524v-180.327c.12-.372.279-.737.351-1.117.486-2.565 1.855-4.519 4.104-5.811.893-.513 1.884-.851 2.831-1.269h114.451v196.646h-72.058c-13.556 0-27.111.004-40.667-.004-4.102 0-7.469-2.488-8.507-6.248-.173-.623-.337-1.246-.505-1.87zm70.117-114.711h2.126c7.839 0 15.679.005 23.521-.005 1.859-.003 2.356-.505 2.361-2.316.008-4.249.008-8.498 0-12.746-.004-1.811-.5-2.316-2.361-2.317-23.167-.007-46.333-.007-69.499 0-1.904.001-2.412.527-2.419 2.453-.016 4.098-.012 8.194-.003 12.292.005 2.219.435 2.637 2.682 2.638 8.143.004 16.287.002 24.431.002h1.825v2.081c0 22.205-.001 44.41.001 66.616 0 2.118.455 2.582 2.568 2.589 3.845.011 7.689.005 11.533.003 2.936 0 3.235-.292 3.235-3.171.001-21.951 0-43.904 0-65.856-.001-.694-.001-1.386-.001-2.263z"/><path d="m257.742 0h114.451c.112.096.207.238.338.28 4.799 1.546 6.794 4.307 6.794 9.466.003 59.091.003 118.182.003 177.273 0 .304.008.607-.009.911-.256 5.301-3.813 8.713-9.092 8.713-36.88.002-73.761.002-110.644.002h-1.842c.001-65.65.001-131.147.001-196.645z"/></g><path d="m163.285 92.653c-.001-11.128-.002-22.256 0-33.385.001-2.392.442-2.84 2.812-2.843 3.895-.005 7.789-.005 11.684 0 2.427.003 2.838.406 2.838 2.803.003 19.829.019 39.657-.017 59.485-.005 2.776.632 5.207 2.79 7.069 1.595 1.376 3.464 1.995 5.58 1.99 8.195-.019 16.388-.009 24.583-.006 2.219.001 2.635.42 2.637 2.664.005 4.098.01 8.194-.003 12.292-.006 1.828-.524 2.369-2.338 2.372-10.673.013-21.349.126-32.019-.038-6.793-.104-12.583-2.471-16.036-8.81-1.855-3.406-2.495-7.135-2.503-10.968-.025-10.874-.008-21.75-.008-32.625z" fill="#fff0e6"/><path d="m70.117 73.813v2.261c0 21.952.001 43.905 0 65.856 0 2.879-.299 3.171-3.235 3.171-3.844.002-7.688.008-11.533-.003-2.113-.007-2.568-.471-2.568-2.589-.002-22.206-.001-44.411-.001-66.616v-2.081h-1.825c-8.144 0-16.288.002-24.431-.002-2.247-.001-2.677-.419-2.682-2.638-.009-4.098-.013-8.194.003-12.292.007-1.925.516-2.452 2.419-2.453 23.166-.007 46.332-.007 69.499 0 1.861.001 2.356.506 2.361 2.317.008 4.249.008 8.498 0 12.746-.004 1.811-.502 2.313-2.361 2.316-7.841.01-15.681.005-23.521.005-.603.002-1.208.002-2.125.002z" fill="#fff0e6"/><path d="m280.43 100.772c.314-21.735 15.73-40.281 37.163-43.941 14.147-2.418 26.731 1.301 37.557 10.786 1.443 1.267 1.476 2.062.148 3.404-2.923 2.947-5.858 5.878-8.801 8.804-1.379 1.37-1.995 1.382-3.504.148-11.203-9.146-26.377-8.766-36.697 1.296-7.55 7.362-10.084 16.518-7.254 26.701 2.894 10.412 9.92 17.008 20.456 19.433 8.726 2.008 16.621-.155 23.531-5.857 1.397-1.152 2.112-1.135 3.399.143 2.977 2.959 5.948 5.93 8.906 8.909 1.271 1.279 1.246 2.048-.133 3.281-7.476 6.69-16.192 10.568-26.22 11.323-22.396 1.688-41.916-12.527-47.13-34.408-.777-3.268-.962-6.677-1.421-10.022z" fill="#fff0e6"/></g></svg>