<?xml version="1.0" encoding="UTF-8" standalone="no"?>
<!-- Generator: Adobe Illustrator 16.0.0, SVG Export Plug-In . SVG Version: 6.00 Build 0)  -->

<svg
   xmlns:dc="http://purl.org/dc/elements/1.1/"
   xmlns:cc="http://creativecommons.org/ns#"
   xmlns:rdf="http://www.w3.org/1999/02/22-rdf-syntax-ns#"
   xmlns:svg="http://www.w3.org/2000/svg"
   xmlns="http://www.w3.org/2000/svg"
   xmlns:sodipodi="http://sodipodi.sourceforge.net/DTD/sodipodi-0.dtd"
   xmlns:inkscape="http://www.inkscape.org/namespaces/inkscape"
   version="1.1"
   id="Layer_1"
   x="0px"
   y="0px"
   width="1000"
   height="618.026"
   viewBox="0 0 999.99997 618.02599"
   enable-background="new 0 0 566.929 243.378"
   xml:space="preserve"
   inkscape:version="0.91 r13725"
   sodipodi:docname="Fox 1994 2.svg"><metadata
   id="metadata17"><rdf:RDF><cc:Work
       rdf:about=""><dc:format>image/svg+xml</dc:format><dc:type
         rdf:resource="http://purl.org/dc/dcmitype/StillImage" /><dc:title /></cc:Work></rdf:RDF></metadata><defs
   id="defs15" /><sodipodi:namedview
   pagecolor="#ffffff"
   bordercolor="#666666"
   borderopacity="1"
   objecttolerance="10"
   gridtolerance="10"
   guidetolerance="10"
   inkscape:pageopacity="0"
   inkscape:pageshadow="2"
   inkscape:window-width="1366"
   inkscape:window-height="705"
   id="namedview13"
   showgrid="false"
   inkscape:zoom="0.7071068"
   inkscape:cx="548.21122"
   inkscape:cy="365.10527"
   inkscape:window-x="-8"
   inkscape:window-y="-8"
   inkscape:window-maximized="1"
   inkscape:current-layer="Layer_1" />

<path
   inkscape:connector-curvature="0"
   d="M 0,2.5100047e-4 0,618.026 l 1000,0 0,-618.02574899953 -1000,0 z"
   id="rect6538" /><path
   style="fill:#ffffff"
   d="M 45.279297 0 L 24.248047 510.73047 L 28.111328 510.73047 L 112.23242 0 L 45.279297 0 z "
   id="Searchlight_1" /><path
   style="fill:#ffffff"
   d="M 255.58008 0 L 100.21484 336.48047 L 38.626953 467.59766 L 23.605469 510.51562 L 28.970703 510.51562 L 321.67383 0 L 255.58008 0 z "
   id="Searchlight_2" /><path
   style="fill:#ffffff"
   d="M 677.68164 0 L 971.0293 510.73047 L 975.96484 510.73047 L 961.37305 467.38281 L 744.63477 0 L 677.68164 0 z "
   id="Searchlight_3" /><path
   style="fill:#ffffff"
   d="M 885.83594 0 L 945.92188 364.80664 L 971.67383 510.73047 L 977.03906 510.73047 L 954.50586 0 L 885.83594 0 z "
   id="Searchlight_4" /><path
   inkscape:connector-curvature="0"
   style="fill:#ffffff"
   d="m 0,510.72986 0,21.45923 1000,0 0,-21.45923 -1000,0 z"
   id="rect6546" /><path
   inkscape:connector-curvature="0"
   style="fill:#ffffff"
   d="m 0,564.16418 0,21.45922 999.7863,0 0,-21.45922 -999.7863,0 z"
   id="polyline6548" /><path
   d="m 198.80374,224.20199 0,45.29857 95.74537,0 0,94.71888 -95.74537,0 0,112.21498 -98.3209,0 0,-347.46384 208.99399,0 6.69292,95.23141 z"
   id="path7"
   inkscape:connector-curvature="0"
   style="fill:#ffffff"
   sodipodi:nodetypes="ccccccccccc" /><path
   d="m 596.86426,182.38119 c 32.61802,33.29474 48.93629,73.48655 48.93629,120.56687 0,47.42154 -16.31969,87.77753 -48.93629,121.07655 -32.62371,33.29331 -71.97034,49.93995 -118.04273,49.93995 -46.41075,0 -85.93299,-16.64664 -118.54957,-49.93995 -32.62515,-33.29759 -48.93345,-73.65501 -48.93345,-121.07655 0,-47.08175 16.3083,-87.27213 48.93345,-120.56687 32.61658,-33.29471 72.13882,-49.9428 118.54957,-49.9428 46.07096,0 85.41902,16.64809 118.04273,49.9428 z m -146.29349,190.183 c 0,7.74226 2.85391,14.46517 8.57601,20.18014 5.71354,5.7221 12.61206,8.57744 20.68269,8.57744 8.07204,0 14.88203,-2.85534 20.4314,-8.57744 5.55078,-5.71497 8.32475,-12.43788 8.32475,-20.18014 l 0,-140.74558 c 0,-8.07063 -2.77397,-14.96057 -8.32475,-20.68268 -5.54794,-5.71355 -12.35794,-8.57603 -20.4314,-8.57603 -8.07063,0 -14.96773,2.86248 -20.68269,8.57603 -5.72353,5.72211 -8.57601,12.61205 -8.57601,20.68268 l 0,140.74558 z"
   id="path9"
   inkscape:connector-curvature="0"
   style="fill:#ffffff" /><path
   d="m 799.19531,477.46806 -49.41456,-88.02737 -47.8727,88.02737 -108.10042,0 102.95366,-180.16929 -97.29153,-168.32819 111.18993,0 40.66723,75.15549 41.17975,-75.15549 107.5836,0 -95.23139,167.29741 105.01238,181.19864 -110.67595,0 z"
   id="path11"
   inkscape:connector-curvature="0"
   style="fill:#ffffff" /></svg>