<?xml version="1.0" encoding="utf-8"?>
<!-- Generator: Adobe Illustrator 27.8.1, SVG Export Plug-In . SVG Version: 6.00 Build 0)  -->
<svg version="1.1" id="Layer_1" xmlns="http://www.w3.org/2000/svg" xmlns:xlink="http://www.w3.org/1999/xlink" x="0px" y="0px"
	 width="220px" height="44.9px" viewBox="0 0 220 44.9" enable-background="new 0 0 220 44.9" xml:space="preserve">
<path fill="#010101" d="M61.3,0c-8.1,0-11.6,6-11.6,11.5C49.7,17,53.2,23,61.3,23S73,17,73,11.5C73,6,69.5,0,61.3,0 M61.3,20.3
	c-6.2,0-8.9-4.3-8.9-8.8c0-4.4,2.6-8.8,8.9-8.8s8.9,4.3,8.9,8.8C70.2,15.9,67.6,20.3,61.3,20.3 M162.4,0c-8.1,0-11.6,6-11.6,11.5
	c0,5.5,3.5,11.5,11.6,11.5s11.6-5.9,11.6-11.5C174.1,6,170.6,0,162.4,0 M162.4,20.3c-6.2,0-8.9-4.3-8.9-8.8c0-4.4,2.6-8.8,8.9-8.8
	c6.2,0,8.9,4.3,8.9,8.8C171.3,15.9,168.7,20.3,162.4,20.3 M45.7,0.5l-0.5,1.1v20.9h-2.8c-0.2,0-0.5-0.1-0.6-0.3L30.5,4.9h-0.1v17.5
	h-3.3l0.5-1.1V1.6l-0.5-1.1h3.3c0.2,0,0.5,0.1,0.6,0.3l11.4,17.4h0.1V0.5H45.7z M95.6,0.5L95,1.6v20.9h-2.8c-0.2,0-0.5-0.1-0.6-0.3
	L80.4,4.9h-0.1v17.5H77l0.5-1.1V1.6L77,0.5h3.3c0.2,0,0.5,0.1,0.6,0.3l11.4,17.4h0.1V0.5H95.6z M134,18.8L140.5,1
	c0.1-0.3,0.4-0.5,0.7-0.5h3.9l-0.5,1.1l2.4,19.8l0.5,1.1h-3.3l-2.1-18.1H142L135.7,22c-0.1,0.3-0.4,0.5-0.7,0.5H133
	c-0.3,0-0.6-0.2-0.7-0.5L126,4.4h-0.1l-2.1,18.1h-3.3l0.6-1.1l2.4-19.8L123,0.5h3.9c0.3,0,0.6,0.2,0.7,0.5L134,18.8L134,18.8z
	 M196.8,0.5l-0.5,1.1v13c0,2.8-0.7,8.4-8.8,8.4c-8.1,0-8.8-5.5-8.8-8.4v-13l-0.5-1.1h2.7c0.4,0,0.7,0.3,0.7,0.7v13c0,2,0.6,6,5.9,6
	c5.3,0,5.9-4,5.9-6v-13c0-0.4,0.3-0.7,0.7-0.7H196.8z M210.1,2.5c-3.5,0-5.8,1.4-5.8,3.7c0,5.4,15.7,1.6,15.7,10.2
	c0,5-5.2,6.5-9.3,6.5c-8.1,0-9.7-4.6-9.9-6.7l-0.5-1.1h2.7c0.3,0,0.6,0.3,0.7,0.6c0.2,1.4,1.3,4.6,7.2,4.6c4.2,0,6.3-1.5,6.3-3.9
	c0-6-15.7-2-15.7-10.1c0-3.6,3.1-6.4,8.8-6.4c7,0,8.5,3.9,8.8,5.9l0.5,1.1H217c-0.3,0-0.6-0.2-0.7-0.5C216,5.2,214.9,2.5,210.1,2.5
	 M115.7,0.8c0.1-0.2,0.4-0.3,0.6-0.3h3.1l-1.1,1.1l-7.8,11.8v8.1l0.5,1.1h-3.8l0.5-1.1v-8.1L99.9,1.6l-1.1-1.1h3.1
	c0.2,0,0.5,0.1,0.6,0.3l6.6,10L115.7,0.8 M20.7,22.5H24l-0.8-1.1L14,0.9c-0.1-0.3-0.4-0.4-0.6-0.4H9.2l0.4,1.1L0.8,21.4L0,22.5h3.3
	L6.1,16h11.6L20.7,22.5z M7.3,13.4l4.6-10.5h0.1l4.7,10.5H7.3z M102.2,33v11.7h-1.2l0,0l-7.1-10.8v10.8H93V33h1.2l0,0.1l7,10.8h0.1
	V33H102.2z M86,38.8c0,2.5-1.4,5.3-5.4,5.3c-4,0-5.4-2.9-5.4-5.3c0-2.5,1.4-5.3,5.4-5.3C84.6,33.5,86,36.3,86,38.8 M80.6,32.7
	c-4.3,0-6.2,3.1-6.2,6.1c0,3,1.9,6.1,6.2,6.1s6.2-3.1,6.2-6.1C86.8,35.7,84.9,32.7,80.6,32.7 M68,41.6h0.9l-0.1,0.2
	c-1,2-3,3.1-5.5,3.1c-4.3,0-6.2-3.1-6.2-6.1c0-3,1.9-6.1,6.2-6.1c2.5,0,4.5,1.1,5.5,3.1l0.1,0.2H68l0-0.1c-0.9-1.6-2.6-2.5-4.7-2.5
	c-4,0-5.4,2.9-5.4,5.3c0,2.5,1.4,5.3,5.4,5.3C65.4,44.1,67,43.2,68,41.6L68,41.6L68,41.6z M117.5,32.9v0.8h-4.2v10.8h-0.8V33.8h-4.2
	v-0.8H117.5z M147.9,33v11.7h-1.2l0,0l-7.1-10.8v10.8h-0.8V33h1.2l0,0.1l7,10.8h0.1V33H147.9z M162.4,32.9v0.8h-4.2v10.8h-0.8V33.8
	h-4.2v-0.8H162.4z M132.5,32.9v0.8h-7.9l0,4.5h7.3V39h-7.3l0,4.8h7.9v0.8h-8.7V32.9H132.5z"/>
</svg>
