<?xml version="1.0" encoding="UTF-8" standalone="no"?>
<!-- Generator: Adobe Illustrator 16.0.0, SVG Export Plug-In . SVG Version: 6.00 Build 0)  -->

<svg
   xmlns:dc="http://purl.org/dc/elements/1.1/"
   xmlns:cc="http://creativecommons.org/ns#"
   xmlns:rdf="http://www.w3.org/1999/02/22-rdf-syntax-ns#"
   xmlns:svg="http://www.w3.org/2000/svg"
   xmlns="http://www.w3.org/2000/svg"
   xmlns:sodipodi="http://sodipodi.sourceforge.net/DTD/sodipodi-0.dtd"
   xmlns:inkscape="http://www.inkscape.org/namespaces/inkscape"
   version="1.1"
   id="Layer_1"
   x="0px"
   y="0px"
   width="100"
   height="57"
   viewBox="0 0 100 57.000001"
   enable-background="new 0 0 1000 386.93"
   xml:space="preserve"
   sodipodi:docname="latestcb=20180323185530.svg"
   inkscape:version="0.92.2 (5c3e80d, 2017-08-06)"><title
     id="title886">The Voice logo</title><metadata
     id="metadata31"><rdf:RDF><cc:Work
         rdf:about=""><dc:format>image/svg+xml</dc:format><dc:type
           rdf:resource="http://purl.org/dc/dcmitype/StillImage" /><dc:title>The Voice logo</dc:title><cc:license
           rdf:resource="http://scripts.sil.org/OFL" /></cc:Work><cc:License
         rdf:about="http://scripts.sil.org/OFL"><cc:permits
           rdf:resource="http://scripts.sil.org/pub/OFL/Reproduction" /><cc:permits
           rdf:resource="http://scripts.sil.org/pub/OFL/Distribution" /><cc:permits
           rdf:resource="http://scripts.sil.org/pub/OFL/Embedding" /><cc:permits
           rdf:resource="http://scripts.sil.org/pub/OFL/DerivativeWorks" /><cc:requires
           rdf:resource="http://scripts.sil.org/pub/OFL/Notice" /><cc:requires
           rdf:resource="http://scripts.sil.org/pub/OFL/Attribution" /><cc:requires
           rdf:resource="http://scripts.sil.org/pub/OFL/ShareAlike" /><cc:requires
           rdf:resource="http://scripts.sil.org/pub/OFL/DerivativeRenaming" /><cc:requires
           rdf:resource="http://scripts.sil.org/pub/OFL/BundlingWhenSelling" /></cc:License></rdf:RDF></metadata><defs
     id="defs29" /><sodipodi:namedview
     pagecolor="#ffffff"
     bordercolor="#666666"
     borderopacity="1"
     objecttolerance="10"
     gridtolerance="10"
     guidetolerance="10"
     inkscape:pageopacity="0"
     inkscape:pageshadow="2"
     inkscape:window-width="1366"
     inkscape:window-height="705"
     id="namedview27"
     showgrid="false"
     inkscape:showpageshadow="false"
     inkscape:zoom="1"
     inkscape:cx="51.373438"
     inkscape:cy="33.857554"
     inkscape:window-x="-8"
     inkscape:window-y="-8"
     inkscape:window-maximized="1"
     inkscape:current-layer="Layer_1" /><g
     id="g24"
     transform="matrix(0.09289444,-0.03108919,0.03108919,0.09289444,0.34153747,22.906207)"><path
       d="m 567.805,275.226 c -6.104,4.356 -13.624,6.73 -21.446,6.745 l -89.177,0.194 c -6.738,0.015 -12.992,-1.806 -18.247,-5.269 -8.981,3.641 -18.773,5.335 -28.428,5.354 l -160.996,0.29 c -22.666,0.042 -39.408,-8.986 -48.37,-24.807 l -78.97,114.305 c -1.902,2.759 -4.224,5.19 -6.874,7.238 -22.254,17.18 -58.11,3.949 -61.937,-24.877 L 0.579,44.597 C -1.502,32.379 2.06,20.497 10.771,11.649 17.236,5.083 26.784,0.193 36.132,0.176 L 132.374,0 c 19.159,-0.033 36.204,16.273 38.521,35.062 l 11.938,74.571 4.453,-5.88 c 6.308,-8.992 17.294,-14.565 28.256,-14.511 l 12.962,0.068 3.902,-14.592 c 4.498,-16.81 24.395,-31.057 41.615,-31.088 37.237,-0.065 74.48,-0.134 111.719,-0.199 23.684,-0.044 44.509,21.695 43.665,45.279 l -0.008,0.149 16.189,-0.03 c 6.099,-0.01 12.094,0.555 17.801,2.014 l 4.743,-16.829 c 5.603,-19.877 20.465,-30.271 41.129,-29.454 l 80.28,-0.147 c 7.914,-0.017 15.774,2.487 22.252,7.021 12.392,8.676 17.786,22.939 15.141,37.202 1.922,-0.095 3.863,-0.139 5.835,-0.142 l 114.588,-0.209 c 6.302,-0.012 12.369,1.771 17.591,4.993 7.827,-3.219 16.213,-5.053 24.705,-5.07 L 942.81,87.931 c 31.867,-0.057 57.129,24.847 57.188,56.804 0.01,5.971 -0.877,11.914 -2.465,17.664 l -12.688,45.919 c -3.989,14.438 -15.971,25.46 -30.498,27.908 l -4.69,17.042 c -4.97,18.042 -20.699,28.011 -38.987,28.049 l -150.95,0.304 c -8.688,0.019 -20.301,-1.69 -29.761,-5.933 -6.117,3.775 -13.363,5.976 -19.987,5.987 l -109.802,0.234 c -10.406,0.022 -22.428,-1.763 -32.365,-6.683 z"
       id="path2"
       inkscape:connector-curvature="0"
       style="clip-rule:evenodd;fill-rule:evenodd" /><path
       d="m 508.967,59.2 80.603,-0.149 c 13.78,-0.023 27.191,12.331 22.358,29.486 l -5.177,19.779 c 8.317,-4.316 16.979,-5.17 26.044,-5.185 l 114.587,-0.207 c 6.271,-0.014 11.835,3.078 15.283,7.838 8.296,-4.964 17.675,-7.897 27.013,-7.914 l 153.162,-0.275 c 23.43,-0.044 42.475,17.937 42.52,42.187 0.005,4.373 -0.621,8.981 -1.935,13.74 l -12.692,45.917 c -3.335,12.164 -14.053,17.667 -22.315,17.682 l -5.37,0.038 -7.507,27.243 c -2.323,8.476 -9.671,17.278 -24.895,17.298 l -150.95,0.301 c -10.811,0.021 -26.79,-3.634 -31.09,-9.872 -2.885,5.177 -11.415,9.922 -18.658,9.929 l -109.804,0.229 c -12.79,0.024 -27.938,-3.271 -34.437,-11.894 -2.949,6.912 -10.166,11.946 -19.382,11.958 l -89.177,0.196 c -6.827,0.01 -12.146,-2.972 -15.484,-8.476 -8.853,5.774 -19.954,8.538 -31.185,8.562 l -160.996,0.286 c -27.742,0.05 -41.068,-15.835 -41.114,-41.296 -0.002,-1.791 0.095,-3.636 0.304,-5.526 l -98.546,142.643 c -9.978,14.629 -39.668,9.927 -42.286,-11.477 L 15.011,42.137 C 12.108,24.631 27.45,14.827 36.159,14.815 l 96.242,-0.174 c 9.732,-0.019 22.458,8.812 23.993,22.441 l 17.409,108.739 25.345,-33.479 c 3.66,-5.369 10.346,-8.444 16.322,-8.46 l 24.261,0.125 6.82,-25.508 c 2.607,-9.8 16.299,-20.209 27.499,-20.229 43.314,-0.08 69.399,-0.125 111.717,-0.202 13.784,-0.025 29.614,13.194 29.008,30.112 l -3.615,15.349 34.456,-0.063 c 9.881,-0.017 19.553,1.614 27.135,8.12 l 9.47,-33.601 C 485.543,66.187 493.22,58.477 508.967,59.2 Z"
       id="path4-9"
       inkscape:connector-curvature="0"
       style="fill:#ffffff" /><polygon
       points="546.292,248.139 457.116,248.3 491.985,124.555 581.165,124.397 "
       id="polygon6"
       style="clip-rule:evenodd;fill-rule:evenodd" /><polygon
       points="158.992,207.903 216.37,125.054 247.619,124.996 88.385,354.566 34.165,37.653 132.97,37.476 "
       id="polygon8"
       style="clip-rule:evenodd;fill-rule:evenodd" /><polygon
       points="583.168,117.281 493.99,117.438 504.105,80.994 593.231,80.825 "
       id="polygon10"
       style="clip-rule:evenodd;fill-rule:evenodd" /><path
       d="m 630.7,124.307 116.72,-0.212 -7.874,27.996 -46.124,0.084 c -4.773,0.008 -9.786,3.927 -11.123,8.7 l -13.946,49.611 c -1.315,4.687 1.438,8.523 6.13,8.514 l 46.275,-0.08 -8.148,28.921 -112.504,0.201 c -20.398,0.036 -32.4,-16.634 -26.653,-37.053 l 15.115,-53.725 c 5.088,-18.095 24.045,-32.924 42.132,-32.957 z"
       id="path12-4"
       inkscape:connector-curvature="0"
       style="clip-rule:evenodd;fill-rule:evenodd" /><path
       d="m 284.26,124.93 160.998,-0.288 c 18.013,-0.036 25.456,14.55 20.881,30.813 L 448.33,218.75 c -4.575,16.267 -19.626,29.596 -37.888,29.629 l -160.996,0.292 c -15.757,0.031 -26.005,-12.598 -20.766,-31.218 l 17.694,-62.891 c 4.577,-16.266 20.124,-29.601 37.886,-29.632 z m 67.162,94.587 -24.683,0.045 c -6.428,0.012 -7.182,-1.757 -5.146,-9.417 4.71,-16.745 9.332,-33.476 13.933,-50.26 1.115,-4.063 4.302,-7.378 9.445,-7.387 l 24.681,-0.046 c 6.43,-0.011 7.184,1.752 5.149,9.421 -4.602,16.808 -9.226,33.517 -13.935,50.258 -1.139,4.048 -4.303,7.376 -9.444,7.386 z"
       id="path14-2"
       inkscape:connector-curvature="0"
       style="clip-rule:evenodd;fill-rule:evenodd" /><path
       d="m 849.625,151.892 21.789,-0.038 c 5.561,-0.011 6.215,1.516 4.451,8.147 l -4.257,15.134 -34.91,0.063 4.757,-16.917 c 0.991,-3.508 3.724,-6.381 8.17,-6.389 z m -59.909,-27.873 153.162,-0.272 c 17.105,-0.032 27.158,13.945 22.347,31.06 l -13.47,47.881 -123.072,0.219 -1.906,6.612 c -1.789,6.727 -0.412,9.206 6.155,9.196 l 92.557,-0.166 -8.137,28.924 -157.919,0.282 c -17.9,0.033 -28.438,-14.604 -23.399,-32.52 l 17.756,-63.116 c 4.343,-15.427 20.508,-28.07 35.926,-28.1 z"
       id="path16-9"
       inkscape:connector-curvature="0"
       style="clip-rule:evenodd;fill-rule:evenodd" /><path
       d="m 336.065,81.391 c 3.754,0.533 5.608,3.258 4.386,7.593 l -7.035,25.107 -8.039,0.013 7.077,-25.104 -28.123,0.049 -7.073,25.107 -8.042,0.013 12.319,-43.718 8.042,-0.014 -3.076,10.91 z"
       id="path18-8"
       inkscape:connector-curvature="0"
       style="clip-rule:evenodd;fill-rule:evenodd" /><path
       d="m 263.689,104.575 8.401,-29.897 8.229,-0.017 -1.9,6.738 12.268,-0.021 -2.294,7.701 -12.144,0.021 -3.979,14.113 c -0.708,2.523 -0.83,3.291 1.233,3.288 l 11.252,-0.021 -2.294,7.705 -12.709,0.021 c -5.355,0.011 -7.469,-4.347 -6.063,-9.631 z"
       id="path20-7"
       inkscape:connector-curvature="0"
       style="clip-rule:evenodd;fill-rule:evenodd" /><path
       d="m 342.583,104.433 4.33,-15.46 c 1.611,-5.709 5.257,-7.708 13.414,-7.723 l 23.777,-0.044 c 6.368,-0.01 7.276,4.348 5.87,9.634 l -3.105,11.296 -35.645,0.063 -0.248,0.873 c -0.709,2.523 -0.83,3.29 1.233,3.288 l 27.254,-0.048 -2.293,7.701 -28.714,0.052 c -6.372,0.01 -7.28,-4.347 -5.873,-9.632 z m 12.372,-15.474 -1.563,5.538 27.607,-0.048 0.525,-2.249 c 0.71,-2.523 0.832,-3.29 -1.232,-3.287 z"
       id="path22-7"
       inkscape:connector-curvature="0"
       style="clip-rule:evenodd;fill-rule:evenodd" /></g></svg>